<svg width="1296" height="70" viewBox="0 0 1296 70" fill="none" xmlns="http://www.w3.org/2000/svg">
<path d="M15 21.875C12.266 21.8782 9.6448 22.9658 7.71153 24.899C5.77826 26.8323 4.69074 29.4534 4.68751 32.1875C4.68424 34.4218 5.41406 36.5954 6.76501 38.375C6.76501 38.375 7.04626 38.7453 7.0922 38.7987L15 48.125L22.9116 38.7941C22.9528 38.7444 23.235 38.375 23.235 38.375L23.2359 38.3722C24.5862 36.5934 25.3157 34.4207 25.3125 32.1875C25.3093 29.4534 24.2218 26.8323 22.2885 24.899C20.3552 22.9658 17.7341 21.8782 15 21.875ZM15 35.9375C14.2583 35.9375 13.5333 35.7176 12.9166 35.3055C12.2999 34.8935 11.8193 34.3078 11.5355 33.6226C11.2516 32.9373 11.1774 32.1833 11.3221 31.4559C11.4668 30.7285 11.8239 30.0603 12.3484 29.5358C12.8728 29.0114 13.541 28.6542 14.2684 28.5096C14.9959 28.3649 15.7499 28.4391 16.4351 28.723C17.1203 29.0068 17.706 29.4874 18.118 30.1041C18.5301 30.7208 18.75 31.4458 18.75 32.1875C18.7488 33.1817 18.3533 34.1348 17.6503 34.8378C16.9473 35.5408 15.9942 35.9363 15 35.9375Z" fill="white"/>
<path d="M51.616 39.24H53.84V32.92L54.08 31.832L53.312 32.776L51.888 33.752L51.008 32.552L54.656 29.608H55.824V39.24H58V41H51.616V39.24ZM66.6781 32.536C66.6781 33.08 66.5768 33.6293 66.3741 34.184C66.1821 34.7387 65.9315 35.2827 65.6221 35.816C65.3235 36.3493 64.9875 36.8667 64.6141 37.368C64.2515 37.8587 63.8941 38.312 63.5421 38.728L62.6941 39.384V39.464L63.8461 39.24H66.9181V41H60.1821V39.928C60.4381 39.6613 60.7261 39.352 61.0461 39C61.3661 38.6373 61.6861 38.2587 62.0061 37.864C62.3368 37.4587 62.6568 37.0427 62.9661 36.616C63.2755 36.1893 63.5528 35.7627 63.7981 35.336C64.0435 34.8987 64.2355 34.4773 64.3741 34.072C64.5235 33.6667 64.5981 33.2827 64.5981 32.92C64.5981 32.4827 64.4701 32.1253 64.2141 31.848C63.9688 31.56 63.5741 31.416 63.0301 31.416C62.6888 31.416 62.3368 31.4907 61.9741 31.64C61.6221 31.7787 61.3235 31.96 61.0781 32.184L60.2461 30.712C60.6621 30.3707 61.1315 30.0987 61.6541 29.896C62.1875 29.6827 62.8115 29.576 63.5261 29.576C63.9848 29.576 64.4061 29.64 64.7901 29.768C65.1741 29.896 65.5048 30.0827 65.7821 30.328C66.0595 30.5733 66.2781 30.8827 66.4381 31.256C66.5981 31.6187 66.6781 32.0453 66.6781 32.536ZM72.0123 39.464C72.6736 39.464 73.1749 39.288 73.5163 38.936C73.8683 38.584 74.0443 38.1573 74.0443 37.656C74.0443 37.048 73.8629 36.6 73.5003 36.312C73.1376 36.024 72.5669 35.88 71.7883 35.88H70.6363V34.776L72.5723 32.136L73.4843 31.416L72.2203 31.56H69.5323V29.8H75.6443V30.936L73.3883 33.96L72.6843 34.392V34.472L73.3563 34.376C73.7296 34.408 74.0816 34.4933 74.4123 34.632C74.7536 34.7707 75.0469 34.9733 75.2923 35.24C75.5483 35.496 75.7509 35.816 75.9003 36.2C76.0496 36.584 76.1243 37.0267 76.1243 37.528C76.1243 38.1573 76.0176 38.7013 75.8043 39.16C75.6016 39.6187 75.3136 40.0027 74.9403 40.312C74.5776 40.6213 74.1509 40.8507 73.6603 41C73.1696 41.1493 72.6416 41.224 72.0763 41.224C71.6069 41.224 71.1216 41.1813 70.6203 41.096C70.1189 41.0107 69.7136 40.888 69.4043 40.728L69.9643 39C70.2416 39.1387 70.5456 39.2507 70.8763 39.336C71.2176 39.4213 71.5963 39.464 72.0123 39.464ZM86.0824 37.88H84.3224V41H82.3864V37.88H77.5384V36.696L82.6104 29.72H84.3224V36.216H86.0824V37.88ZM82.3864 33.768L82.5304 32.424H82.4664L81.9224 33.576L80.2584 35.736L79.4584 36.344L80.4824 36.216H82.3864V33.768ZM89.8325 39.384C90.5365 39.384 91.0752 39.2133 91.4485 38.872C91.8218 38.5307 92.0085 38.0613 92.0085 37.464C92.0085 36.824 91.7898 36.3547 91.3525 36.056C90.9152 35.7573 90.2912 35.608 89.4805 35.608L88.2165 35.656V29.8H93.7205V31.752H90.0085V33.912L90.6645 33.848C91.1872 33.8693 91.6565 33.9653 92.0725 34.136C92.4992 34.3067 92.8618 34.5467 93.1605 34.856C93.4592 35.1547 93.6885 35.5227 93.8485 35.96C94.0085 36.3867 94.0885 36.8667 94.0885 37.4C94.0885 38.0293 93.9818 38.584 93.7685 39.064C93.5552 39.544 93.2565 39.944 92.8725 40.264C92.4992 40.584 92.0565 40.824 91.5445 40.984C91.0325 41.144 90.4725 41.224 89.8645 41.224C89.3845 41.224 88.9258 41.1813 88.4885 41.096C88.0618 41.0213 87.6992 40.9147 87.4005 40.776L87.9605 39.048C88.2058 39.1547 88.4725 39.24 88.7605 39.304C89.0592 39.3573 89.4165 39.384 89.8325 39.384ZM103.711 37.528C103.711 38.0507 103.62 38.536 103.439 38.984C103.268 39.432 103.023 39.8213 102.703 40.152C102.383 40.4827 101.993 40.744 101.535 40.936C101.087 41.128 100.591 41.224 100.047 41.224C99.492 41.224 98.98 41.1387 98.5106 40.968C98.052 40.7867 97.652 40.52 97.3106 40.168C96.9693 39.816 96.7026 39.3733 96.5106 38.84C96.3186 38.3067 96.2226 37.688 96.2226 36.984C96.2226 35.928 96.372 34.9733 96.6706 34.12C96.98 33.2667 97.3906 32.5253 97.9026 31.896C98.4253 31.256 99.028 30.744 99.7106 30.36C100.404 29.9653 101.135 29.704 101.903 29.576L102.367 31.224C101.833 31.3093 101.343 31.4747 100.895 31.72C100.447 31.9653 100.047 32.2587 99.6946 32.6C99.3533 32.9413 99.06 33.3253 98.8146 33.752C98.58 34.168 98.4146 34.6 98.3186 35.048C98.532 34.7813 98.8093 34.5573 99.1506 34.376C99.492 34.184 99.9186 34.088 100.431 34.088C100.911 34.088 101.353 34.1627 101.759 34.312C102.164 34.4613 102.511 34.6853 102.799 34.984C103.087 35.272 103.311 35.6293 103.471 36.056C103.631 36.4827 103.711 36.9733 103.711 37.528ZM101.695 37.64C101.695 36.4453 101.108 35.848 99.9346 35.848C99.508 35.848 99.1453 35.944 98.8466 36.136C98.5586 36.328 98.356 36.552 98.2386 36.808C98.2173 36.9253 98.2066 37.0267 98.2066 37.112C98.2066 37.1973 98.2066 37.2827 98.2066 37.368C98.2066 37.624 98.244 37.88 98.3186 38.136C98.3933 38.3813 98.5 38.6053 98.6386 38.808C98.788 39 98.9746 39.16 99.1986 39.288C99.4226 39.4053 99.6893 39.464 99.9986 39.464C100.5 39.464 100.905 39.2933 101.215 38.952C101.535 38.6107 101.695 38.1733 101.695 37.64ZM105.141 39.976C105.141 39.6133 105.258 39.3253 105.493 39.112C105.738 38.8987 106.037 38.792 106.389 38.792C106.837 38.792 107.189 38.9413 107.445 39.24C107.701 39.5387 107.829 39.9333 107.829 40.424C107.829 40.904 107.754 41.3147 107.605 41.656C107.455 42.008 107.269 42.296 107.045 42.52C106.831 42.7547 106.597 42.936 106.341 43.064C106.095 43.2027 105.871 43.304 105.669 43.368L105.061 42.504C105.349 42.3867 105.599 42.1947 105.813 41.928C106.026 41.6613 106.143 41.3787 106.165 41.08C105.919 41.112 105.685 41.0373 105.461 40.856C105.247 40.6747 105.141 40.3813 105.141 39.976ZM117.518 34.84H114.494V41H112.35V33H117.518V34.84ZM116.985 39.944C116.985 39.5707 117.102 39.2773 117.337 39.064C117.571 38.84 117.881 38.728 118.265 38.728C118.67 38.728 118.99 38.84 119.225 39.064C119.459 39.2773 119.577 39.5707 119.577 39.944C119.577 40.3173 119.459 40.616 119.225 40.84C118.99 41.064 118.67 41.176 118.265 41.176C117.881 41.176 117.571 41.064 117.337 40.84C117.102 40.616 116.985 40.3173 116.985 39.944ZM131.521 31.752H128.257V41H126.065V31.752H122.785V29.8H131.521V31.752ZM130.661 33.464C131.088 33.272 131.594 33.1227 132.181 33.016C132.768 32.8987 133.381 32.84 134.021 32.84C134.576 32.84 135.04 32.9093 135.413 33.048C135.786 33.176 136.08 33.3627 136.293 33.608C136.517 33.8533 136.672 34.1467 136.757 34.488C136.853 34.8293 136.901 35.2133 136.901 35.64C136.901 36.1093 136.885 36.584 136.853 37.064C136.821 37.5333 136.8 37.9973 136.789 38.456C136.789 38.9147 136.805 39.3627 136.837 39.8C136.869 40.2267 136.949 40.632 137.077 41.016H135.381L135.045 39.912H134.965C134.752 40.2427 134.453 40.5307 134.069 40.776C133.696 41.0107 133.21 41.128 132.613 41.128C132.24 41.128 131.904 41.0747 131.605 40.968C131.306 40.8507 131.05 40.6907 130.837 40.488C130.624 40.2747 130.458 40.0293 130.341 39.752C130.224 39.464 130.165 39.144 130.165 38.792C130.165 38.3013 130.272 37.8907 130.485 37.56C130.709 37.2187 131.024 36.9467 131.429 36.744C131.845 36.5307 132.336 36.3867 132.901 36.312C133.477 36.2267 134.117 36.2 134.821 36.232C134.896 35.6347 134.853 35.208 134.693 34.952C134.533 34.6853 134.176 34.552 133.621 34.552C133.205 34.552 132.762 34.5947 132.293 34.68C131.834 34.7653 131.456 34.8773 131.157 35.016L130.661 33.464ZM133.301 39.416C133.717 39.416 134.048 39.3253 134.293 39.144C134.538 38.952 134.72 38.7493 134.837 38.536V37.496C134.506 37.464 134.186 37.4587 133.877 37.48C133.578 37.5013 133.312 37.5493 133.077 37.624C132.842 37.6987 132.656 37.8053 132.517 37.944C132.378 38.0827 132.309 38.2587 132.309 38.472C132.309 38.7707 132.394 39.0053 132.565 39.176C132.746 39.336 132.992 39.416 133.301 39.416ZM138.646 33.016C139.02 32.984 139.468 32.952 139.99 32.92C140.524 32.888 141.094 32.872 141.702 32.872C142.876 32.872 143.708 33.0427 144.198 33.384C144.7 33.7147 144.95 34.216 144.95 34.888C144.95 35.2613 144.844 35.624 144.63 35.976C144.417 36.328 144.081 36.584 143.622 36.744V36.808C144.198 36.936 144.614 37.1653 144.87 37.496C145.126 37.816 145.254 38.232 145.254 38.744C145.254 39.544 144.945 40.1413 144.326 40.536C143.718 40.9307 142.737 41.128 141.382 41.128C140.934 41.128 140.46 41.112 139.958 41.08C139.457 41.0587 139.02 41.0267 138.646 40.984V33.016ZM140.678 39.4C140.828 39.4213 140.966 39.4373 141.094 39.448C141.222 39.4587 141.382 39.464 141.574 39.464C142.15 39.464 142.561 39.384 142.806 39.224C143.052 39.064 143.174 38.8187 143.174 38.488C143.174 38.2107 143.068 37.9867 142.854 37.816C142.652 37.6347 142.284 37.544 141.75 37.544H140.678V39.4ZM141.782 36.264C142.124 36.264 142.401 36.184 142.614 36.024C142.838 35.8533 142.95 35.64 142.95 35.384C142.95 35.1067 142.854 34.8987 142.662 34.76C142.481 34.6107 142.145 34.536 141.654 34.536C141.409 34.536 141.212 34.5413 141.062 34.552C140.924 34.5627 140.796 34.5733 140.678 34.584V36.264H141.782ZM151.541 37.352L151.621 36.216H151.573L150.885 37.384L148.037 41H146.725V33H148.805V36.808L148.709 37.896H148.773L149.429 36.76L152.309 33H153.621V41H151.541V37.352ZM162.291 37.336L162.419 35.672H162.339L161.699 37.048L160.195 39.528H159.443L157.795 37.048L157.187 35.672H157.091L157.299 37.32V41H155.443V33H157.603L159.443 36.008L159.891 37.016H159.955L160.419 35.976L162.115 33H164.291V41H162.291V37.336ZM166.052 33.464C166.478 33.272 166.985 33.1227 167.572 33.016C168.158 32.8987 168.772 32.84 169.411 32.84C169.966 32.84 170.43 32.9093 170.804 33.048C171.177 33.176 171.47 33.3627 171.684 33.608C171.908 33.8533 172.062 34.1467 172.148 34.488C172.244 34.8293 172.292 35.2133 172.292 35.64C172.292 36.1093 172.276 36.584 172.244 37.064C172.212 37.5333 172.19 37.9973 172.18 38.456C172.18 38.9147 172.196 39.3627 172.228 39.8C172.26 40.2267 172.34 40.632 172.468 41.016H170.772L170.436 39.912H170.356C170.142 40.2427 169.844 40.5307 169.46 40.776C169.086 41.0107 168.601 41.128 168.004 41.128C167.63 41.128 167.294 41.0747 166.996 40.968C166.697 40.8507 166.441 40.6907 166.228 40.488C166.014 40.2747 165.849 40.0293 165.732 39.752C165.614 39.464 165.556 39.144 165.556 38.792C165.556 38.3013 165.662 37.8907 165.876 37.56C166.1 37.2187 166.414 36.9467 166.82 36.744C167.236 36.5307 167.726 36.3867 168.292 36.312C168.868 36.2267 169.508 36.2 170.212 36.232C170.286 35.6347 170.244 35.208 170.084 34.952C169.924 34.6853 169.566 34.552 169.012 34.552C168.596 34.552 168.153 34.5947 167.684 34.68C167.225 34.7653 166.846 34.8773 166.548 35.016L166.052 33.464ZM168.692 39.416C169.108 39.416 169.438 39.3253 169.684 39.144C169.929 38.952 170.11 38.7493 170.228 38.536V37.496C169.897 37.464 169.577 37.4587 169.268 37.48C168.969 37.5013 168.702 37.5493 168.468 37.624C168.233 37.6987 168.046 37.8053 167.908 37.944C167.769 38.0827 167.7 38.2587 167.7 38.472C167.7 38.7707 167.785 39.0053 167.956 39.176C168.137 39.336 168.382 39.416 168.692 39.416ZM173.797 39.976C173.797 39.6133 173.914 39.3253 174.149 39.112C174.394 38.8987 174.693 38.792 175.045 38.792C175.493 38.792 175.845 38.9413 176.101 39.24C176.357 39.5387 176.485 39.9333 176.485 40.424C176.485 40.904 176.41 41.3147 176.261 41.656C176.112 42.008 175.925 42.296 175.701 42.52C175.488 42.7547 175.253 42.936 174.997 43.064C174.752 43.2027 174.528 43.304 174.325 43.368L173.717 42.504C174.005 42.3867 174.256 42.1947 174.469 41.928C174.682 41.6613 174.8 41.3787 174.821 41.08C174.576 41.112 174.341 41.0373 174.117 40.856C173.904 40.6747 173.797 40.3813 173.797 39.976ZM183.605 37.496L183.893 38.744H183.989L184.197 37.48L185.413 33H187.557L185.125 40.216C184.923 40.8133 184.725 41.3573 184.533 41.848C184.352 42.3493 184.149 42.7813 183.925 43.144C183.701 43.5067 183.451 43.784 183.173 43.976C182.907 44.1787 182.587 44.28 182.213 44.28C181.659 44.28 181.216 44.1893 180.885 44.008L181.269 42.344C181.429 42.408 181.589 42.44 181.749 42.44C181.995 42.44 182.229 42.3333 182.453 42.12C182.688 41.9173 182.864 41.544 182.981 41L179.637 33H182.133L183.605 37.496ZM192.28 34.84H190.696C190.632 35.5973 190.557 36.3493 190.472 37.096C190.386 37.8427 190.248 38.5147 190.056 39.112C189.874 39.6987 189.624 40.1787 189.304 40.552C188.984 40.9147 188.568 41.096 188.056 41.096C187.437 41.096 187 41.016 186.744 40.856L187 39.128C187.17 39.192 187.33 39.224 187.48 39.224C187.693 39.224 187.88 39.1333 188.04 38.952C188.2 38.7707 188.333 38.4453 188.44 37.976C188.557 37.5067 188.648 36.872 188.712 36.072C188.786 35.2613 188.84 34.2373 188.872 33H194.36V41H192.28V34.84ZM195.922 39.944C195.922 39.5707 196.039 39.2773 196.274 39.064C196.509 38.84 196.818 38.728 197.202 38.728C197.607 38.728 197.927 38.84 198.162 39.064C198.397 39.2773 198.514 39.5707 198.514 39.944C198.514 40.3173 198.397 40.616 198.162 40.84C197.927 41.064 197.607 41.176 197.202 41.176C196.818 41.176 196.509 41.064 196.274 40.84C196.039 40.616 195.922 40.3173 195.922 39.944ZM211.773 35.192L212.013 32.968H211.917L211.229 34.76L208.845 38.936H208.141L205.629 34.744L204.925 32.968H204.845L205.165 35.176V41H203.085V29.8H205.085L208.077 34.92L208.605 36.2H208.669L209.149 34.888L211.981 29.8H213.965V41H211.773V35.192ZM215.45 37C215.45 35.6453 215.781 34.6053 216.442 33.88C217.103 33.144 218.031 32.776 219.226 32.776C219.866 32.776 220.421 32.8773 220.89 33.08C221.359 33.2827 221.749 33.5707 222.058 33.944C222.367 34.3067 222.597 34.7493 222.746 35.272C222.906 35.7947 222.986 36.3707 222.986 37C222.986 38.3547 222.655 39.4 221.994 40.136C221.343 40.8613 220.421 41.224 219.226 41.224C218.586 41.224 218.031 41.1227 217.562 40.92C217.093 40.7173 216.698 40.4347 216.378 40.072C216.069 39.6987 215.834 39.2507 215.674 38.728C215.525 38.2053 215.45 37.6293 215.45 37ZM217.594 37C217.594 37.352 217.626 37.6773 217.69 37.976C217.754 38.2747 217.85 38.536 217.978 38.76C218.106 38.984 218.271 39.16 218.474 39.288C218.687 39.4053 218.938 39.464 219.226 39.464C219.77 39.464 220.175 39.2667 220.442 38.872C220.709 38.4773 220.842 37.8533 220.842 37C220.842 36.264 220.719 35.672 220.474 35.224C220.229 34.7653 219.813 34.536 219.226 34.536C218.714 34.536 218.314 34.728 218.026 35.112C217.738 35.496 217.594 36.1253 217.594 37ZM224.428 33H225.948L226.188 33.96H226.252C226.529 33.5547 226.854 33.256 227.228 33.064C227.612 32.872 228.076 32.776 228.62 32.776C229.622 32.776 230.374 33.096 230.876 33.736C231.377 34.3653 231.628 35.384 231.628 36.792C231.628 37.4747 231.548 38.0933 231.388 38.648C231.228 39.192 230.988 39.656 230.668 40.04C230.358 40.424 229.974 40.7173 229.516 40.92C229.068 41.1227 228.55 41.224 227.964 41.224C227.633 41.224 227.361 41.1973 227.148 41.144C226.934 41.1013 226.721 41.0267 226.508 40.92V44.2H224.428V33ZM227.996 34.536C227.59 34.536 227.27 34.6373 227.036 34.84C226.812 35.0427 226.636 35.3467 226.508 35.752V39.08C226.657 39.1973 226.817 39.2933 226.988 39.368C227.169 39.432 227.404 39.464 227.692 39.464C228.289 39.464 228.737 39.256 229.036 38.84C229.334 38.4133 229.484 37.7147 229.484 36.744C229.484 36.04 229.366 35.496 229.132 35.112C228.897 34.728 228.518 34.536 227.996 34.536ZM238.732 40.504C238.412 40.7387 238.023 40.9147 237.564 41.032C237.116 41.16 236.652 41.224 236.172 41.224C235.532 41.224 234.988 41.1227 234.54 40.92C234.103 40.7173 233.746 40.4347 233.468 40.072C233.191 39.6987 232.988 39.2507 232.86 38.728C232.743 38.2053 232.684 37.6293 232.684 37C232.684 35.6453 232.988 34.6053 233.596 33.88C234.204 33.144 235.09 32.776 236.252 32.776C236.839 32.776 237.308 32.824 237.66 32.92C238.023 33.016 238.348 33.1387 238.636 33.288L238.14 34.984C237.895 34.8667 237.65 34.776 237.404 34.712C237.17 34.648 236.898 34.616 236.588 34.616C236.012 34.616 235.575 34.808 235.276 35.192C234.978 35.5653 234.828 36.168 234.828 37C234.828 37.3413 234.866 37.656 234.94 37.944C235.015 38.232 235.127 38.4827 235.276 38.696C235.426 38.9093 235.618 39.08 235.852 39.208C236.098 39.3253 236.38 39.384 236.7 39.384C237.052 39.384 237.351 39.3413 237.596 39.256C237.842 39.16 238.06 39.048 238.252 38.92L238.732 40.504ZM242.63 37.688H242.07V41H239.99V33H242.07V36.408L242.566 36.184L244.438 33H246.662L244.726 36.04L243.91 36.648L244.806 37.272L246.966 41H244.582L242.63 37.688ZM247.77 33.464C248.197 33.272 248.704 33.1227 249.29 33.016C249.877 32.8987 250.49 32.84 251.13 32.84C251.685 32.84 252.149 32.9093 252.522 33.048C252.896 33.176 253.189 33.3627 253.402 33.608C253.626 33.8533 253.781 34.1467 253.866 34.488C253.962 34.8293 254.01 35.2133 254.01 35.64C254.01 36.1093 253.994 36.584 253.962 37.064C253.93 37.5333 253.909 37.9973 253.898 38.456C253.898 38.9147 253.914 39.3627 253.946 39.8C253.978 40.2267 254.058 40.632 254.186 41.016H252.49L252.154 39.912H252.074C251.861 40.2427 251.562 40.5307 251.178 40.776C250.805 41.0107 250.32 41.128 249.722 41.128C249.349 41.128 249.013 41.0747 248.714 40.968C248.416 40.8507 248.16 40.6907 247.946 40.488C247.733 40.2747 247.568 40.0293 247.45 39.752C247.333 39.464 247.274 39.144 247.274 38.792C247.274 38.3013 247.381 37.8907 247.594 37.56C247.818 37.2187 248.133 36.9467 248.538 36.744C248.954 36.5307 249.445 36.3867 250.01 36.312C250.586 36.2267 251.226 36.2 251.93 36.232C252.005 35.6347 251.962 35.208 251.802 34.952C251.642 34.6853 251.285 34.552 250.73 34.552C250.314 34.552 249.872 34.5947 249.402 34.68C248.944 34.7653 248.565 34.8773 248.266 35.016L247.77 33.464ZM250.41 39.416C250.826 39.416 251.157 39.3253 251.402 39.144C251.648 38.952 251.829 38.7493 251.946 38.536V37.496C251.616 37.464 251.296 37.4587 250.986 37.48C250.688 37.5013 250.421 37.5493 250.186 37.624C249.952 37.6987 249.765 37.8053 249.626 37.944C249.488 38.0827 249.418 38.2587 249.418 38.472C249.418 38.7707 249.504 39.0053 249.674 39.176C249.856 39.336 250.101 39.416 250.41 39.416ZM259.98 37.976L259.02 38.168L257.484 41H255.004L256.556 38.488L257.34 37.896C256.817 37.8107 256.385 37.5653 256.044 37.16C255.702 36.744 255.532 36.2267 255.532 35.608C255.532 34.6373 255.852 33.9227 256.492 33.464C257.142 33.0053 258.134 32.776 259.468 32.776C259.98 32.776 260.454 32.8027 260.892 32.856C261.34 32.9093 261.729 32.968 262.06 33.032V41H259.98V37.976ZM259.98 36.888V34.68C259.862 34.6267 259.734 34.5893 259.596 34.568C259.457 34.5467 259.324 34.536 259.196 34.536C258.716 34.536 258.342 34.6373 258.076 34.84C257.809 35.0427 257.676 35.3467 257.676 35.752C257.676 36.1573 257.82 36.456 258.108 36.648C258.406 36.84 258.838 36.9307 259.404 36.92L259.98 36.888ZM263.563 39.976C263.563 39.6133 263.68 39.3253 263.915 39.112C264.16 38.8987 264.459 38.792 264.811 38.792C265.259 38.792 265.611 38.9413 265.867 39.24C266.123 39.5387 266.251 39.9333 266.251 40.424C266.251 40.904 266.176 41.3147 266.027 41.656C265.877 42.008 265.691 42.296 265.467 42.52C265.253 42.7547 265.019 42.936 264.763 43.064C264.517 43.2027 264.293 43.304 264.091 43.368L263.483 42.504C263.771 42.3867 264.021 42.1947 264.235 41.928C264.448 41.6613 264.565 41.3787 264.587 41.08C264.341 41.112 264.107 41.0373 263.883 40.856C263.669 40.6747 263.563 40.3813 263.563 39.976ZM278.723 42.824H277.203L276.963 41H271.587L271.347 42.824H269.827V39.16H270.771C270.857 39.0427 270.963 38.8453 271.091 38.568C271.23 38.28 271.363 37.8907 271.491 37.4C271.63 36.9093 271.747 36.3013 271.843 35.576C271.939 34.8507 271.987 33.992 271.987 33H277.555V39.16H278.723V42.824ZM275.475 39.256V34.76H273.795C273.774 35.144 273.737 35.5547 273.683 35.992C273.63 36.4187 273.561 36.8347 273.475 37.24C273.401 37.6453 273.31 38.024 273.203 38.376C273.097 38.728 272.979 39.0213 272.851 39.256H275.475ZM279.625 39.944C279.625 39.5707 279.742 39.2773 279.977 39.064C280.212 38.84 280.521 38.728 280.905 38.728C281.31 38.728 281.63 38.84 281.865 39.064C282.1 39.2773 282.217 39.5707 282.217 39.944C282.217 40.3173 282.1 40.616 281.865 40.84C281.63 41.064 281.31 41.176 280.905 41.176C280.521 41.176 280.212 41.064 279.977 40.84C279.742 40.616 279.625 40.3173 279.625 39.944ZM293.428 32.536C293.428 33.08 293.327 33.6293 293.124 34.184C292.932 34.7387 292.681 35.2827 292.372 35.816C292.073 36.3493 291.737 36.8667 291.364 37.368C291.001 37.8587 290.644 38.312 290.292 38.728L289.444 39.384V39.464L290.596 39.24H293.668V41H286.932V39.928C287.188 39.6613 287.476 39.352 287.796 39C288.116 38.6373 288.436 38.2587 288.756 37.864C289.087 37.4587 289.407 37.0427 289.716 36.616C290.025 36.1893 290.303 35.7627 290.548 35.336C290.793 34.8987 290.985 34.4773 291.124 34.072C291.273 33.6667 291.348 33.2827 291.348 32.92C291.348 32.4827 291.22 32.1253 290.964 31.848C290.719 31.56 290.324 31.416 289.78 31.416C289.439 31.416 289.087 31.4907 288.724 31.64C288.372 31.7787 288.073 31.96 287.828 32.184L286.996 30.712C287.412 30.3707 287.881 30.0987 288.404 29.896C288.937 29.6827 289.561 29.576 290.276 29.576C290.735 29.576 291.156 29.64 291.54 29.768C291.924 29.896 292.255 30.0827 292.532 30.328C292.809 30.5733 293.028 30.8827 293.188 31.256C293.348 31.6187 293.428 32.0453 293.428 32.536ZM296.522 39.24H298.746V32.92L298.986 31.832L298.218 32.776L296.794 33.752L295.914 32.552L299.562 29.608H300.73V39.24H302.906V41H296.522V39.24Z" fill="white"/>
<path fill-rule="evenodd" clip-rule="evenodd" d="M636.112 50L632.484 35.5775C632.046 33.8476 631.757 32.1168 631.468 30.5302H631.321C631.032 32.261 630.886 33.8476 630.45 35.7217L626.82 50H620.578L628.853 20.002H633.789L642.5 50H636.112ZM540.887 20.002L544.516 34.4236C545.097 36.1544 545.242 37.8862 545.532 39.4708H545.678C545.968 37.741 546.113 36.0091 546.549 34.2793L550.178 20.002H556.42L548.146 50H543.21L534.5 20.002H540.887ZM560.918 20.002H566.87V50H560.918V20.002ZM600.549 20.002L603.596 37.742L606.064 20.002H614.047L617.096 50H611L609.548 28.3667L608.532 35.7217L606.064 50H601.419L598.516 35.5775L597.499 28.9436V28.3667H597.354L596.483 50H590.095L592.71 20.002H600.549ZM581.677 20.002C580.661 20.7232 579.936 22.0203 579.355 23.3184C577.758 26.9243 579.5 29.808 580.951 32.4043C581.098 32.6927 581.389 33.1254 581.532 33.5582C584.871 39.0381 586.033 43.0757 583.711 48.8441L583.13 49.999H575.871C576.742 49.2768 577.612 48.2692 578.048 47.1143C579.791 43.2199 577.758 39.615 575.871 36.0081C573.695 31.8263 571.371 27.5003 573.839 21.5866C573.985 21.0096 574.566 20 574.566 20H581.677V20.002Z" fill="white"/>
<path d="M881.275 33.4875C883.075 37.025 885.975 39.9125 889.512 41.725L892.262 38.975C892.6 38.6375 893.1 38.525 893.538 38.675C894.938 39.1375 896.45 39.3875 898 39.3875C898.688 39.3875 899.25 39.95 899.25 40.6375V45C899.25 45.6875 898.688 46.25 898 46.25C886.262 46.25 876.75 36.7375 876.75 25C876.75 24.3125 877.312 23.75 878 23.75H882.375C883.062 23.75 883.625 24.3125 883.625 25C883.625 26.5625 883.875 28.0625 884.337 29.4625C884.475 29.9 884.375 30.3875 884.025 30.7375L881.275 33.4875Z" fill="white"/>
<path d="M923.688 34.696H926.28V31.992H928.152V34.696H930.76V36.488H928.152V39.224H926.28V36.488H923.688V34.696ZM933.102 41L936.766 32.376L937.47 31.592L936.51 31.752H932.398V29.8H939.614V30.408L935.134 41H933.102ZM947.335 44.52C946.844 44.008 946.428 43.4427 946.087 42.824C945.746 42.216 945.468 41.592 945.255 40.952C945.052 40.3013 944.903 39.6507 944.807 39C944.711 38.3387 944.663 37.7093 944.663 37.112C944.663 36.5253 944.711 35.9067 944.807 35.256C944.903 34.6053 945.058 33.9547 945.271 33.304C945.484 32.6427 945.762 31.9973 946.103 31.368C946.455 30.7387 946.882 30.152 947.383 29.608L948.727 30.472C948.354 30.9733 948.039 31.496 947.783 32.04C947.538 32.584 947.335 33.144 947.175 33.72C947.026 34.2853 946.914 34.856 946.839 35.432C946.775 36.008 946.743 36.568 946.743 37.112C946.743 37.624 946.78 38.168 946.855 38.744C946.93 39.32 947.047 39.896 947.207 40.472C947.367 41.0373 947.575 41.592 947.831 42.136C948.087 42.68 948.396 43.176 948.759 43.624L947.335 44.52ZM950.554 39.24H952.778V32.92L953.018 31.832L952.25 32.776L950.826 33.752L949.946 32.552L953.594 29.608H954.762V39.24H956.938V41H950.554V39.24ZM965.616 32.536C965.616 33.08 965.514 33.6293 965.312 34.184C965.12 34.7387 964.869 35.2827 964.56 35.816C964.261 36.3493 963.925 36.8667 963.552 37.368C963.189 37.8587 962.832 38.312 962.48 38.728L961.632 39.384V39.464L962.784 39.24H965.856V41H959.12V39.928C959.376 39.6613 959.664 39.352 959.984 39C960.304 38.6373 960.624 38.2587 960.944 37.864C961.274 37.4587 961.594 37.0427 961.904 36.616C962.213 36.1893 962.49 35.7627 962.736 35.336C962.981 34.8987 963.173 34.4773 963.312 34.072C963.461 33.6667 963.536 33.2827 963.536 32.92C963.536 32.4827 963.408 32.1253 963.152 31.848C962.906 31.56 962.512 31.416 961.968 31.416C961.626 31.416 961.274 31.4907 960.912 31.64C960.56 31.7787 960.261 31.96 960.016 32.184L959.184 30.712C959.6 30.3707 960.069 30.0987 960.592 29.896C961.125 29.6827 961.749 29.576 962.464 29.576C962.922 29.576 963.344 29.64 963.728 29.768C964.112 29.896 964.442 30.0827 964.72 30.328C964.997 30.5733 965.216 30.8827 965.376 31.256C965.536 31.6187 965.616 32.0453 965.616 32.536ZM970.95 39.464C971.611 39.464 972.112 39.288 972.454 38.936C972.806 38.584 972.982 38.1573 972.982 37.656C972.982 37.048 972.8 36.6 972.438 36.312C972.075 36.024 971.504 35.88 970.726 35.88H969.574V34.776L971.51 32.136L972.422 31.416L971.158 31.56H968.47V29.8H974.582V30.936L972.326 33.96L971.622 34.392V34.472L972.294 34.376C972.667 34.408 973.019 34.4933 973.35 34.632C973.691 34.7707 973.984 34.9733 974.23 35.24C974.486 35.496 974.688 35.816 974.838 36.2C974.987 36.584 975.062 37.0267 975.062 37.528C975.062 38.1573 974.955 38.7013 974.742 39.16C974.539 39.6187 974.251 40.0027 973.878 40.312C973.515 40.6213 973.088 40.8507 972.598 41C972.107 41.1493 971.579 41.224 971.014 41.224C970.544 41.224 970.059 41.1813 969.558 41.096C969.056 41.0107 968.651 40.888 968.342 40.728L968.902 39C969.179 39.1387 969.483 39.2507 969.814 39.336C970.155 39.4213 970.534 39.464 970.95 39.464ZM977.724 29.608C978.236 30.12 978.663 30.6853 979.004 31.304C979.345 31.912 979.617 32.5413 979.82 33.192C980.033 33.832 980.188 34.4827 980.284 35.144C980.38 35.7947 980.433 36.4293 980.444 37.048C980.433 37.6133 980.38 38.2213 980.284 38.872C980.188 39.5227 980.033 40.1787 979.82 40.84C979.607 41.4907 979.324 42.1307 978.972 42.76C978.631 43.3893 978.231 43.976 977.772 44.52L976.348 43.624C976.753 43.1013 977.084 42.5627 977.34 42.008C977.596 41.464 977.799 40.9147 977.948 40.36C978.097 39.7947 978.199 39.2347 978.252 38.68C978.316 38.1147 978.353 37.592 978.364 37.112C978.353 36.536 978.305 35.9653 978.22 35.4C978.145 34.824 978.028 34.2533 977.868 33.688C977.708 33.112 977.5 32.5573 977.244 32.024C976.999 31.48 976.711 30.9627 976.38 30.472L977.724 29.608ZM994.301 37.88H992.541V41H990.605V37.88H985.757V36.696L990.829 29.72H992.541V36.216H994.301V37.88ZM990.605 33.768L990.749 32.424H990.685L990.141 33.576L988.477 35.736L987.677 36.344L988.701 36.216H990.605V33.768ZM998.051 39.384C998.755 39.384 999.294 39.2133 999.667 38.872C1000.04 38.5307 1000.23 38.0613 1000.23 37.464C1000.23 36.824 1000.01 36.3547 999.571 36.056C999.134 35.7573 998.51 35.608 997.699 35.608L996.435 35.656V29.8H1001.94V31.752H998.227V33.912L998.883 33.848C999.406 33.8693 999.875 33.9653 1000.29 34.136C1000.72 34.3067 1001.08 34.5467 1001.38 34.856C1001.68 35.1547 1001.91 35.5227 1002.07 35.96C1002.23 36.3867 1002.31 36.8667 1002.31 37.4C1002.31 38.0293 1002.2 38.584 1001.99 39.064C1001.77 39.544 1001.48 39.944 1001.09 40.264C1000.72 40.584 1000.28 40.824 999.763 40.984C999.251 41.144 998.691 41.224 998.083 41.224C997.603 41.224 997.145 41.1813 996.707 41.096C996.281 41.0213 995.918 40.9147 995.619 40.776L996.179 39.048C996.425 39.1547 996.691 39.24 996.979 39.304C997.278 39.3573 997.635 39.384 998.051 39.384ZM1011.93 37.528C1011.93 38.0507 1011.84 38.536 1011.66 38.984C1011.49 39.432 1011.24 39.8213 1010.92 40.152C1010.6 40.4827 1010.21 40.744 1009.75 40.936C1009.31 41.128 1008.81 41.224 1008.27 41.224C1007.71 41.224 1007.2 41.1387 1006.73 40.968C1006.27 40.7867 1005.87 40.52 1005.53 40.168C1005.19 39.816 1004.92 39.3733 1004.73 38.84C1004.54 38.3067 1004.44 37.688 1004.44 36.984C1004.44 35.928 1004.59 34.9733 1004.89 34.12C1005.2 33.2667 1005.61 32.5253 1006.12 31.896C1006.64 31.256 1007.25 30.744 1007.93 30.36C1008.62 29.9653 1009.35 29.704 1010.12 29.576L1010.59 31.224C1010.05 31.3093 1009.56 31.4747 1009.11 31.72C1008.67 31.9653 1008.27 32.2587 1007.91 32.6C1007.57 32.9413 1007.28 33.3253 1007.03 33.752C1006.8 34.168 1006.63 34.6 1006.54 35.048C1006.75 34.7813 1007.03 34.5573 1007.37 34.376C1007.71 34.184 1008.14 34.088 1008.65 34.088C1009.13 34.088 1009.57 34.1627 1009.98 34.312C1010.38 34.4613 1010.73 34.6853 1011.02 34.984C1011.31 35.272 1011.53 35.6293 1011.69 36.056C1011.85 36.4827 1011.93 36.9733 1011.93 37.528ZM1009.91 37.64C1009.91 36.4453 1009.33 35.848 1008.15 35.848C1007.73 35.848 1007.36 35.944 1007.07 36.136C1006.78 36.328 1006.57 36.552 1006.46 36.808C1006.44 36.9253 1006.43 37.0267 1006.43 37.112C1006.43 37.1973 1006.43 37.2827 1006.43 37.368C1006.43 37.624 1006.46 37.88 1006.54 38.136C1006.61 38.3813 1006.72 38.6053 1006.86 38.808C1007.01 39 1007.19 39.16 1007.42 39.288C1007.64 39.4053 1007.91 39.464 1008.22 39.464C1008.72 39.464 1009.12 39.2933 1009.43 38.952C1009.75 38.6107 1009.91 38.1733 1009.91 37.64ZM1013.55 35.48H1017.57V37.32H1013.55V35.48ZM1026.77 37.528C1026.77 38.0507 1026.68 38.536 1026.5 38.984C1026.33 39.432 1026.09 39.8213 1025.77 40.152C1025.45 40.4827 1025.06 40.744 1024.6 40.936C1024.15 41.128 1023.65 41.224 1023.11 41.224C1022.55 41.224 1022.04 41.1387 1021.57 40.968C1021.11 40.7867 1020.71 40.52 1020.37 40.168C1020.03 39.816 1019.77 39.3733 1019.57 38.84C1019.38 38.3067 1019.29 37.688 1019.29 36.984C1019.29 35.928 1019.43 34.9733 1019.73 34.12C1020.04 33.2667 1020.45 32.5253 1020.97 31.896C1021.49 31.256 1022.09 30.744 1022.77 30.36C1023.47 29.9653 1024.2 29.704 1024.97 29.576L1025.43 31.224C1024.9 31.3093 1024.41 31.4747 1023.96 31.72C1023.51 31.9653 1023.11 32.2587 1022.76 32.6C1022.42 32.9413 1022.12 33.3253 1021.88 33.752C1021.64 34.168 1021.48 34.6 1021.38 35.048C1021.59 34.7813 1021.87 34.5573 1022.21 34.376C1022.55 34.184 1022.98 34.088 1023.49 34.088C1023.97 34.088 1024.42 34.1627 1024.82 34.312C1025.23 34.4613 1025.57 34.6853 1025.86 34.984C1026.15 35.272 1026.37 35.6293 1026.53 36.056C1026.69 36.4827 1026.77 36.9733 1026.77 37.528ZM1024.76 37.64C1024.76 36.4453 1024.17 35.848 1023 35.848C1022.57 35.848 1022.21 35.944 1021.91 36.136C1021.62 36.328 1021.42 36.552 1021.3 36.808C1021.28 36.9253 1021.27 37.0267 1021.27 37.112C1021.27 37.1973 1021.27 37.2827 1021.27 37.368C1021.27 37.624 1021.31 37.88 1021.38 38.136C1021.46 38.3813 1021.56 38.6053 1021.7 38.808C1021.85 39 1022.04 39.16 1022.26 39.288C1022.49 39.4053 1022.75 39.464 1023.06 39.464C1023.56 39.464 1023.97 39.2933 1024.28 38.952C1024.6 38.6107 1024.76 38.1733 1024.76 37.64ZM1029.2 41L1032.86 32.376L1033.56 31.592L1032.6 31.752H1028.49V29.8H1035.71V30.408L1031.23 41H1029.2ZM1036.44 35.48H1040.46V37.32H1036.44V35.48ZM1042.32 38.264C1042.32 37.8907 1042.37 37.56 1042.46 37.272C1042.56 36.9733 1042.69 36.7067 1042.86 36.472C1043.05 36.2267 1043.25 36.008 1043.49 35.816C1043.73 35.624 1043.99 35.448 1044.27 35.288C1043.75 34.9573 1043.34 34.5787 1043.04 34.152C1042.74 33.7147 1042.59 33.176 1042.59 32.536C1042.59 32.12 1042.67 31.7307 1042.82 31.368C1042.98 31.0053 1043.2 30.6907 1043.49 30.424C1043.79 30.1573 1044.14 29.9493 1044.56 29.8C1044.98 29.6507 1045.45 29.576 1045.97 29.576C1046.45 29.576 1046.89 29.64 1047.28 29.768C1047.67 29.896 1048.01 30.0773 1048.29 30.312C1048.58 30.5467 1048.79 30.8347 1048.94 31.176C1049.1 31.5067 1049.18 31.8747 1049.18 32.28C1049.18 32.9093 1049.04 33.4427 1048.75 33.88C1048.47 34.3173 1048.06 34.7173 1047.52 35.08C1048.16 35.4533 1048.64 35.864 1048.96 36.312C1049.29 36.76 1049.46 37.336 1049.46 38.04C1049.46 38.52 1049.37 38.9573 1049.18 39.352C1049.01 39.736 1048.77 40.0667 1048.45 40.344C1048.13 40.6213 1047.74 40.84 1047.3 41C1046.85 41.1493 1046.36 41.224 1045.82 41.224C1045.29 41.224 1044.81 41.1493 1044.37 41C1043.94 40.8613 1043.57 40.664 1043.26 40.408C1042.97 40.152 1042.73 39.8427 1042.56 39.48C1042.4 39.1173 1042.32 38.712 1042.32 38.264ZM1047.47 38.056C1047.47 37.8107 1047.41 37.5867 1047.3 37.384C1047.18 37.1813 1047.02 37 1046.83 36.84C1046.65 36.6693 1046.44 36.5147 1046.21 36.376C1045.98 36.2373 1045.75 36.104 1045.52 35.976C1045.02 36.264 1044.67 36.5787 1044.48 36.92C1044.3 37.2507 1044.21 37.5813 1044.21 37.912C1044.21 38.3387 1044.35 38.7067 1044.64 39.016C1044.94 39.3147 1045.35 39.464 1045.87 39.464C1046.35 39.464 1046.74 39.3467 1047.02 39.112C1047.32 38.8773 1047.47 38.5253 1047.47 38.056ZM1044.58 32.568C1044.58 32.824 1044.62 33.048 1044.72 33.24C1044.82 33.432 1044.94 33.6027 1045.1 33.752C1045.27 33.8907 1045.46 34.024 1045.66 34.152C1045.88 34.2693 1046.1 34.3813 1046.32 34.488C1046.96 33.944 1047.28 33.3467 1047.28 32.696C1047.28 32.248 1047.15 31.912 1046.88 31.688C1046.62 31.4533 1046.31 31.336 1045.94 31.336C1045.47 31.336 1045.12 31.4587 1044.9 31.704C1044.68 31.9493 1044.58 32.2373 1044.58 32.568ZM1051.14 33.304C1051.14 32.76 1051.22 32.2587 1051.38 31.8C1051.55 31.3413 1051.79 30.952 1052.1 30.632C1052.42 30.3013 1052.81 30.0453 1053.25 29.864C1053.71 29.672 1054.24 29.576 1054.82 29.576C1056.03 29.576 1056.97 29.9387 1057.65 30.664C1058.35 31.3787 1058.69 32.424 1058.69 33.8C1058.69 35.0373 1058.53 36.1093 1058.21 37.016C1057.9 37.912 1057.48 38.664 1056.95 39.272C1056.43 39.8693 1055.82 40.328 1055.13 40.648C1054.43 40.968 1053.7 41.16 1052.93 41.224L1052.49 39.592C1053.07 39.5173 1053.6 39.3733 1054.05 39.16C1054.51 38.9467 1054.91 38.6853 1055.24 38.376C1055.57 38.056 1055.84 37.6987 1056.04 37.304C1056.25 36.8987 1056.4 36.4667 1056.49 36.008C1056.23 36.2853 1055.95 36.4773 1055.65 36.584C1055.37 36.6907 1054.98 36.744 1054.49 36.744C1054.08 36.744 1053.68 36.6747 1053.27 36.536C1052.88 36.3973 1052.52 36.1893 1052.2 35.912C1051.89 35.624 1051.63 35.2667 1051.43 34.84C1051.24 34.4027 1051.14 33.8907 1051.14 33.304ZM1053.16 33.192C1053.16 33.8 1053.33 34.2587 1053.67 34.568C1054.01 34.8773 1054.44 35.032 1054.95 35.032C1055.39 35.032 1055.74 34.9627 1056.02 34.824C1056.3 34.6853 1056.51 34.5147 1056.66 34.312C1056.69 34.088 1056.71 33.8747 1056.71 33.672C1056.71 33.3733 1056.67 33.08 1056.6 32.792C1056.52 32.504 1056.41 32.248 1056.25 32.024C1056.1 31.8 1055.9 31.624 1055.65 31.496C1055.42 31.3573 1055.14 31.288 1054.81 31.288C1054.28 31.288 1053.88 31.4587 1053.59 31.8C1053.3 32.1307 1053.16 32.5947 1053.16 33.192Z" fill="white"/>
<path d="M1115 25H1095C1093.62 25 1092.51 26.125 1092.51 27.5L1092.5 42.5C1092.5 43.875 1093.62 45 1095 45H1115C1116.38 45 1117.5 43.875 1117.5 42.5V27.5C1117.5 26.125 1116.38 25 1115 25ZM1114.5 30.3125L1105.66 35.8375C1105.26 36.0875 1104.74 36.0875 1104.34 35.8375L1095.5 30.3125C1095.37 30.2421 1095.26 30.1471 1095.18 30.0331C1095.09 29.9191 1095.03 29.7885 1094.99 29.6492C1094.96 29.51 1094.95 29.3649 1094.97 29.2229C1094.99 29.0808 1095.04 28.9448 1095.12 28.8229C1095.2 28.701 1095.3 28.5958 1095.41 28.5137C1095.53 28.4317 1095.66 28.3744 1095.81 28.3454C1095.95 28.3164 1096.09 28.3162 1096.23 28.3449C1096.37 28.3737 1096.51 28.4307 1096.62 28.5125L1105 33.75L1113.38 28.5125C1113.49 28.4307 1113.63 28.3737 1113.77 28.3449C1113.91 28.3162 1114.05 28.3164 1114.19 28.3454C1114.34 28.3744 1114.47 28.4317 1114.59 28.5137C1114.7 28.5958 1114.8 28.701 1114.88 28.8229C1114.96 28.9448 1115.01 29.0808 1115.03 29.2229C1115.05 29.3649 1115.04 29.51 1115.01 29.6492C1114.97 29.7885 1114.91 29.9191 1114.82 30.0331C1114.74 30.1471 1114.63 30.2421 1114.5 30.3125Z" fill="white"/>
<path d="M1140.53 37C1140.53 35.6453 1140.86 34.6053 1141.52 33.88C1142.18 33.144 1143.11 32.776 1144.3 32.776C1144.94 32.776 1145.5 32.8773 1145.97 33.08C1146.44 33.2827 1146.83 33.5707 1147.14 33.944C1147.45 34.3067 1147.67 34.7493 1147.82 35.272C1147.98 35.7947 1148.06 36.3707 1148.06 37C1148.06 38.3547 1147.73 39.4 1147.07 40.136C1146.42 40.8613 1145.5 41.224 1144.3 41.224C1143.66 41.224 1143.11 41.1227 1142.64 40.92C1142.17 40.7173 1141.78 40.4347 1141.46 40.072C1141.15 39.6987 1140.91 39.2507 1140.75 38.728C1140.6 38.2053 1140.53 37.6293 1140.53 37ZM1142.67 37C1142.67 37.352 1142.7 37.6773 1142.77 37.976C1142.83 38.2747 1142.93 38.536 1143.06 38.76C1143.18 38.984 1143.35 39.16 1143.55 39.288C1143.77 39.4053 1144.02 39.464 1144.3 39.464C1144.85 39.464 1145.25 39.2667 1145.52 38.872C1145.79 38.4773 1145.92 37.8533 1145.92 37C1145.92 36.264 1145.8 35.672 1145.55 35.224C1145.31 34.7653 1144.89 34.536 1144.3 34.536C1143.79 34.536 1143.39 34.728 1143.1 35.112C1142.82 35.496 1142.67 36.1253 1142.67 37ZM1153.92 34.952C1153.59 34.8347 1153.29 34.776 1153.03 34.776C1152.65 34.776 1152.34 34.8773 1152.08 35.08C1151.84 35.272 1151.67 35.5227 1151.59 35.832V41H1149.51V33H1151.12L1151.36 34.056H1151.43C1151.61 33.6613 1151.85 33.3573 1152.16 33.144C1152.47 32.9307 1152.83 32.824 1153.25 32.824C1153.53 32.824 1153.84 32.8827 1154.19 33L1153.92 34.952ZM1161.92 38.184C1161.92 38.632 1161.92 39.08 1161.93 39.528C1161.94 39.976 1161.99 40.472 1162.08 41.016H1160.59L1160.3 39.976H1160.24C1160.02 40.3493 1159.71 40.6533 1159.31 40.888C1158.91 41.112 1158.44 41.224 1157.9 41.224C1156.9 41.224 1156.12 40.8933 1155.56 40.232C1155.01 39.5707 1154.73 38.536 1154.73 37.128C1154.73 35.7627 1155.04 34.7013 1155.66 33.944C1156.28 33.1867 1157.18 32.808 1158.38 32.808C1158.71 32.808 1158.98 32.8293 1159.2 32.872C1159.41 32.904 1159.62 32.9627 1159.84 33.048V29.8H1161.92V38.184ZM1158.38 39.464C1158.78 39.464 1159.1 39.368 1159.34 39.176C1159.57 38.9733 1159.74 38.6853 1159.84 38.312V34.92C1159.69 34.8027 1159.52 34.7173 1159.34 34.664C1159.16 34.6 1158.92 34.568 1158.64 34.568C1158.05 34.568 1157.61 34.7653 1157.31 35.16C1157.02 35.5547 1156.88 36.232 1156.88 37.192C1156.88 37.8747 1156.99 38.424 1157.23 38.84C1157.47 39.256 1157.86 39.464 1158.38 39.464ZM1170.14 40.312C1169.82 40.568 1169.38 40.7867 1168.83 40.968C1168.28 41.1387 1167.7 41.224 1167.08 41.224C1165.79 41.224 1164.85 40.8507 1164.25 40.104C1163.65 39.3467 1163.36 38.312 1163.36 37C1163.36 35.592 1163.69 34.536 1164.36 33.832C1165.04 33.128 1165.98 32.776 1167.2 32.776C1167.6 32.776 1168 32.8293 1168.38 32.936C1168.76 33.0427 1169.11 33.2187 1169.4 33.464C1169.7 33.7093 1169.94 34.04 1170.12 34.456C1170.31 34.872 1170.4 35.3893 1170.4 36.008C1170.4 36.232 1170.38 36.472 1170.35 36.728C1170.33 36.984 1170.29 37.2507 1170.24 37.528H1165.44C1165.47 38.2 1165.64 38.7067 1165.95 39.048C1166.27 39.3893 1166.78 39.56 1167.48 39.56C1167.92 39.56 1168.31 39.496 1168.65 39.368C1169 39.2293 1169.27 39.0907 1169.45 38.952L1170.14 40.312ZM1167.16 34.44C1166.62 34.44 1166.21 34.6053 1165.95 34.936C1165.69 35.256 1165.54 35.688 1165.48 36.232H1168.46C1168.5 35.656 1168.41 35.2133 1168.19 34.904C1167.97 34.5947 1167.63 34.44 1167.16 34.44ZM1176.28 34.952C1175.95 34.8347 1175.65 34.776 1175.39 34.776C1175.01 34.776 1174.7 34.8773 1174.44 35.08C1174.2 35.272 1174.03 35.5227 1173.95 35.832V41H1171.87V33H1173.48L1173.72 34.056H1173.79C1173.97 33.6613 1174.21 33.3573 1174.52 33.144C1174.83 32.9307 1175.19 32.824 1175.61 32.824C1175.89 32.824 1176.2 32.8827 1176.55 33L1176.28 34.952ZM1187.43 33.256H1188.55L1187.78 37.592C1187.69 38.0933 1187.69 38.456 1187.76 38.68C1187.85 38.904 1188.03 39.016 1188.31 39.016C1188.58 39.016 1188.86 38.952 1189.12 38.824C1189.39 38.696 1189.63 38.4987 1189.84 38.232C1190.06 37.9653 1190.23 37.6293 1190.35 37.224C1190.49 36.8187 1190.56 36.3387 1190.56 35.784C1190.56 34.984 1190.43 34.3013 1190.16 33.736C1189.9 33.1707 1189.53 32.7067 1189.06 32.344C1188.6 31.9707 1188.06 31.6987 1187.43 31.528C1186.8 31.3573 1186.12 31.272 1185.39 31.272C1184.56 31.272 1183.79 31.4213 1183.07 31.72C1182.36 32.0187 1181.74 32.4293 1181.2 32.952C1180.68 33.4747 1180.27 34.0987 1179.97 34.824C1179.67 35.5387 1179.52 36.3173 1179.52 37.16C1179.52 37.992 1179.65 38.7387 1179.89 39.4C1180.15 40.0613 1180.51 40.6213 1180.99 41.08C1181.47 41.5493 1182.07 41.9067 1182.77 42.152C1183.49 42.408 1184.3 42.536 1185.22 42.536C1185.53 42.536 1185.88 42.4987 1186.27 42.424C1186.67 42.3493 1187.03 42.2373 1187.35 42.088L1187.84 43.624C1187.41 43.8373 1186.96 43.9867 1186.5 44.072C1186.05 44.1573 1185.53 44.2 1184.95 44.2C1183.91 44.2 1182.95 44.0507 1182.07 43.752C1181.19 43.4533 1180.43 43.0107 1179.78 42.424C1179.14 41.8373 1178.64 41.112 1178.27 40.248C1177.91 39.3733 1177.73 38.3653 1177.73 37.224C1177.73 36.0613 1177.94 35.0107 1178.35 34.072C1178.77 33.1333 1179.33 32.3333 1180.03 31.672C1180.74 31.0107 1181.55 30.504 1182.48 30.152C1183.41 29.7893 1184.39 29.608 1185.43 29.608C1186.41 29.608 1187.32 29.752 1188.16 30.04C1189.01 30.3173 1189.74 30.7227 1190.35 31.256C1190.97 31.7787 1191.46 32.424 1191.81 33.192C1192.16 33.9493 1192.34 34.8133 1192.34 35.784C1192.34 36.4667 1192.22 37.1067 1191.97 37.704C1191.74 38.3013 1191.41 38.8187 1190.98 39.256C1190.56 39.6933 1190.07 40.04 1189.51 40.296C1188.95 40.552 1188.35 40.68 1187.71 40.68C1187.45 40.68 1187.2 40.6533 1186.96 40.6C1186.74 40.536 1186.55 40.4347 1186.39 40.296C1186.24 40.1573 1186.13 39.976 1186.05 39.752C1185.98 39.528 1185.95 39.2507 1185.99 38.92H1185.92C1185.76 39.144 1185.59 39.3627 1185.39 39.576C1185.21 39.7893 1185.01 39.9813 1184.79 40.152C1184.56 40.312 1184.32 40.44 1184.05 40.536C1183.78 40.632 1183.49 40.68 1183.17 40.68C1182.91 40.68 1182.67 40.6267 1182.43 40.52C1182.2 40.4027 1182 40.2427 1181.83 40.04C1181.66 39.8373 1181.52 39.592 1181.41 39.304C1181.31 39.016 1181.27 38.696 1181.27 38.344C1181.27 37.6827 1181.37 37.0427 1181.59 36.424C1181.8 35.7947 1182.09 35.24 1182.45 34.76C1182.82 34.28 1183.25 33.896 1183.73 33.608C1184.22 33.3093 1184.74 33.16 1185.28 33.16C1185.66 33.16 1185.97 33.2187 1186.23 33.336C1186.48 33.4427 1186.72 33.5867 1186.93 33.768L1187.43 33.256ZM1186.42 35.192C1186.28 35.0747 1186.14 34.984 1185.99 34.92C1185.84 34.856 1185.65 34.824 1185.43 34.824C1185.11 34.824 1184.81 34.9147 1184.53 35.096C1184.26 35.2773 1184.03 35.512 1183.83 35.8C1183.63 36.088 1183.49 36.4133 1183.38 36.776C1183.27 37.128 1183.22 37.4747 1183.22 37.816C1183.22 38.168 1183.29 38.456 1183.43 38.68C1183.58 38.904 1183.83 39.016 1184.18 39.016C1184.33 39.016 1184.49 38.9733 1184.66 38.888C1184.83 38.792 1184.99 38.6693 1185.15 38.52C1185.31 38.3707 1185.47 38.2 1185.62 38.008C1185.77 37.816 1185.9 37.6133 1186.02 37.4L1186.42 35.192ZM1197.18 37.192L1197.45 38.424H1197.53L1197.76 37.16L1199.12 33H1201.36L1198.01 41.08H1196.75L1193.28 33H1195.69L1197.18 37.192ZM1202.21 33H1204.29V41H1202.21V33ZM1201.91 30.744C1201.91 30.4347 1202.02 30.1733 1202.25 29.96C1202.48 29.736 1202.8 29.624 1203.21 29.624C1203.61 29.624 1203.94 29.736 1204.18 29.96C1204.44 30.1733 1204.57 30.4347 1204.57 30.744C1204.57 31.0533 1204.44 31.3147 1204.18 31.528C1203.94 31.7307 1203.61 31.832 1203.21 31.832C1202.8 31.832 1202.48 31.7307 1202.25 31.528C1202.02 31.3147 1201.91 31.0533 1201.91 30.744ZM1209.65 38.792C1209.65 38.5787 1209.56 38.408 1209.37 38.28C1209.19 38.152 1208.97 38.0347 1208.7 37.928C1208.44 37.8213 1208.14 37.7147 1207.82 37.608C1207.5 37.4907 1207.21 37.336 1206.94 37.144C1206.68 36.9413 1206.45 36.6907 1206.27 36.392C1206.09 36.0827 1206 35.688 1206 35.208C1206 34.4187 1206.23 33.816 1206.7 33.4C1207.17 32.984 1207.85 32.776 1208.73 32.776C1209.34 32.776 1209.89 32.84 1210.38 32.968C1210.87 33.096 1211.26 33.24 1211.53 33.4L1211.07 34.904C1210.82 34.808 1210.52 34.7067 1210.14 34.6C1209.77 34.4933 1209.39 34.44 1209.01 34.44C1208.39 34.44 1208.08 34.68 1208.08 35.16C1208.08 35.352 1208.17 35.5067 1208.35 35.624C1208.53 35.7413 1208.76 35.8533 1209.02 35.96C1209.29 36.056 1209.58 36.1627 1209.9 36.28C1210.22 36.3973 1210.52 36.552 1210.78 36.744C1211.05 36.9253 1211.27 37.1653 1211.45 37.464C1211.64 37.7627 1211.73 38.1467 1211.73 38.616C1211.73 39.4267 1211.46 40.0667 1210.94 40.536C1210.43 40.9947 1209.66 41.224 1208.62 41.224C1208.06 41.224 1207.52 41.1493 1207.02 41C1206.53 40.8613 1206.13 40.696 1205.82 40.504L1206.4 38.952C1206.64 39.0907 1206.97 39.2293 1207.37 39.368C1207.78 39.496 1208.2 39.56 1208.62 39.56C1208.93 39.56 1209.18 39.5013 1209.36 39.384C1209.55 39.2667 1209.65 39.0693 1209.65 38.792ZM1217.63 41V36.648C1217.63 35.912 1217.56 35.3893 1217.42 35.08C1217.28 34.7707 1216.99 34.616 1216.56 34.616C1216.19 34.616 1215.9 34.7173 1215.68 34.92C1215.45 35.112 1215.28 35.3627 1215.16 35.672V41H1213.08V33H1214.7L1214.94 34.056H1215C1215.25 33.7147 1215.56 33.416 1215.93 33.16C1216.32 32.904 1216.81 32.776 1217.4 32.776C1217.92 32.776 1218.33 32.8827 1218.65 33.096C1218.98 33.2987 1219.24 33.6453 1219.42 34.136C1219.67 33.72 1219.98 33.3893 1220.36 33.144C1220.75 32.8987 1221.21 32.776 1221.76 32.776C1222.2 32.776 1222.58 32.8293 1222.89 32.936C1223.21 33.0427 1223.47 33.2293 1223.66 33.496C1223.86 33.752 1224.01 34.0987 1224.11 34.536C1224.2 34.9733 1224.25 35.528 1224.25 36.2V41H1222.17V36.504C1222.17 35.8747 1222.1 35.4053 1221.96 35.096C1221.84 34.776 1221.54 34.616 1221.08 34.616C1220.71 34.616 1220.41 34.7173 1220.19 34.92C1219.97 35.1227 1219.81 35.4 1219.71 35.752V41H1217.63ZM1225.91 33.464C1226.34 33.272 1226.84 33.1227 1227.43 33.016C1228.02 32.8987 1228.63 32.84 1229.27 32.84C1229.83 32.84 1230.29 32.9093 1230.66 33.048C1231.04 33.176 1231.33 33.3627 1231.54 33.608C1231.77 33.8533 1231.92 34.1467 1232.01 34.488C1232.1 34.8293 1232.15 35.2133 1232.15 35.64C1232.15 36.1093 1232.13 36.584 1232.1 37.064C1232.07 37.5333 1232.05 37.9973 1232.04 38.456C1232.04 38.9147 1232.05 39.3627 1232.09 39.8C1232.12 40.2267 1232.2 40.632 1232.33 41.016H1230.63L1230.29 39.912H1230.21C1230 40.2427 1229.7 40.5307 1229.32 40.776C1228.95 41.0107 1228.46 41.128 1227.86 41.128C1227.49 41.128 1227.15 41.0747 1226.85 40.968C1226.56 40.8507 1226.3 40.6907 1226.09 40.488C1225.87 40.2747 1225.71 40.0293 1225.59 39.752C1225.47 39.464 1225.41 39.144 1225.41 38.792C1225.41 38.3013 1225.52 37.8907 1225.73 37.56C1225.96 37.2187 1226.27 36.9467 1226.68 36.744C1227.09 36.5307 1227.59 36.3867 1228.15 36.312C1228.73 36.2267 1229.37 36.2 1230.07 36.232C1230.15 35.6347 1230.1 35.208 1229.94 34.952C1229.78 34.6853 1229.43 34.552 1228.87 34.552C1228.45 34.552 1228.01 34.5947 1227.54 34.68C1227.08 34.7653 1226.71 34.8773 1226.41 35.016L1225.91 33.464ZM1228.55 39.416C1228.97 39.416 1229.3 39.3253 1229.54 39.144C1229.79 38.952 1229.97 38.7493 1230.09 38.536V37.496C1229.76 37.464 1229.44 37.4587 1229.13 37.48C1228.83 37.5013 1228.56 37.5493 1228.33 37.624C1228.09 37.6987 1227.91 37.8053 1227.77 37.944C1227.63 38.0827 1227.56 38.2587 1227.56 38.472C1227.56 38.7707 1227.64 39.0053 1227.81 39.176C1228 39.336 1228.24 39.416 1228.55 39.416ZM1233.66 39.944C1233.66 39.5707 1233.77 39.2773 1234.01 39.064C1234.24 38.84 1234.55 38.728 1234.94 38.728C1235.34 38.728 1235.66 38.84 1235.9 39.064C1236.13 39.2773 1236.25 39.5707 1236.25 39.944C1236.25 40.3173 1236.13 40.616 1235.9 40.84C1235.66 41.064 1235.34 41.176 1234.94 41.176C1234.55 41.176 1234.24 41.064 1234.01 40.84C1233.77 40.616 1233.66 40.3173 1233.66 39.944ZM1242.25 34.952C1241.92 34.8347 1241.62 34.776 1241.35 34.776C1240.98 34.776 1240.67 34.8773 1240.41 35.08C1240.16 35.272 1240 35.5227 1239.91 35.832V41H1237.83V33H1239.45L1239.69 34.056H1239.75C1239.94 33.6613 1240.18 33.3573 1240.49 33.144C1240.8 32.9307 1241.16 32.824 1241.58 32.824C1241.86 32.824 1242.17 32.8827 1242.52 33L1242.25 34.952ZM1245.44 33V37.544C1245.44 38.1947 1245.52 38.664 1245.67 38.952C1245.83 39.24 1246.13 39.384 1246.58 39.384C1246.97 39.384 1247.3 39.2667 1247.56 39.032C1247.82 38.7973 1248.02 38.5093 1248.15 38.168V33H1250.23V38.568C1250.23 39.0053 1250.25 39.4373 1250.29 39.864C1250.33 40.28 1250.4 40.6587 1250.48 41H1248.92L1248.55 39.816H1248.48C1248.24 40.2213 1247.9 40.5573 1247.46 40.824C1247.02 41.0907 1246.5 41.224 1245.91 41.224C1245.5 41.224 1245.14 41.1707 1244.82 41.064C1244.5 40.9573 1244.23 40.7813 1244.02 40.536C1243.81 40.2907 1243.64 39.96 1243.52 39.544C1243.42 39.128 1243.36 38.6053 1243.36 37.976V33H1245.44Z" fill="white"/>
</svg>
